<?xml version="1.0" encoding="UTF-8" standalone="no"?>
<!-- Created with Inkscape (http://www.inkscape.org/) -->

<svg
   xmlns:dc="http://purl.org/dc/elements/1.1/"
   xmlns:cc="http://creativecommons.org/ns#"
   xmlns:rdf="http://www.w3.org/1999/02/22-rdf-syntax-ns#"
   xmlns:svg="http://www.w3.org/2000/svg"
   xmlns="http://www.w3.org/2000/svg"
   xmlns:sodipodi="http://sodipodi.sourceforge.net/DTD/sodipodi-0.dtd"
   xmlns:inkscape="http://www.inkscape.org/namespaces/inkscape"
   width="744.09448819"
   height="1052.3622047"
   id="svg2"
   version="1.1"
   inkscape:version="0.48.0 r9654"
   sodipodi:docname="New document 1">
  <defs
     id="defs4" />
  <sodipodi:namedview
     id="base"
     pagecolor="#ffffff"
     bordercolor="#666666"
     borderopacity="1.0"
     inkscape:pageopacity="0.0"
     inkscape:pageshadow="2"
     inkscape:zoom="3.959798"
     inkscape:cx="181.48329"
     inkscape:cy="850.62858"
     inkscape:document-units="px"
     inkscape:current-layer="layer1"
     showgrid="false"
     inkscape:snap-global="true"
     inkscape:snap-bbox="true"
     inkscape:object-nodes="true"
     inkscape:snap-to-guides="true"
     inkscape:snap-page="false"
     inkscape:object-paths="false"
     inkscape:snap-intersection-paths="false"
     inkscape:window-width="1280"
     inkscape:window-height="723"
     inkscape:window-x="0"
     inkscape:window-y="24"
     inkscape:window-maximized="1" />
  <metadata
     id="metadata7">
    <rdf:RDF>
      <cc:Work
         rdf:about="">
        <dc:format>image/svg+xml</dc:format>
        <dc:type
           rdf:resource="http://purl.org/dc/dcmitype/StillImage" />
        <dc:title></dc:title>
      </cc:Work>
    </rdf:RDF>
  </metadata>
  <g
     inkscape:label="Layer 1"
     inkscape:groupmode="layer"
     id="layer1">
    <path
       style="fill:none;stroke:#000000;stroke-width:1px;stroke-linecap:butt;stroke-linejoin:miter;stroke-opacity:1"
       d="m 201.78571,241.6479 c 9.06042,-11.83913 49.75568,0.96447 56.42858,0 6.6729,-0.96447 -0.40276,-46.99582 -28.49061,-49.34718 -22.29672,-1.86656 -36.99839,61.18631 -27.93797,49.34718 z"
       id="path2993"
       inkscape:connector-curvature="0"
       sodipodi:nodetypes="zzsz" />
    <path
       sodipodi:type="arc"
       style="fill:none;stroke:#000000;stroke-width:1px;stroke-linecap:butt;stroke-linejoin:miter;stroke-opacity:1"
       id="path2995"
       sodipodi:cx="184.1003"
       sodipodi:cy="177.065"
       sodipodi:rx="18.182745"
       sodipodi:ry="2.5253813"
       d="m 202.28304,177.065 a 18.182745,2.5253813 0 1 1 -36.36549,0 18.182745,2.5253813 0 1 1 36.36549,0 z"
       transform="translate(15.404826,12.374369)" />
    <path
       sodipodi:type="arc"
       style="fill:none;stroke:#000000;stroke-opacity:1"
       id="path3769"
       sodipodi:cx="231.32494"
       sodipodi:cy="184.38861"
       sodipodi:rx="13.889598"
       sodipodi:ry="13.889598"
       d="m 245.21453,184.38861 a 13.889598,13.889598 0 1 1 -27.77919,0 13.889598,13.889598 0 1 1 27.77919,0 z"
       transform="translate(2.0203051,-8.0812204)" />
    <path
       style="fill:none;stroke:#000000;stroke-width:0.5;stroke-linecap:butt;stroke-linejoin:miter;stroke-miterlimit:4;stroke-opacity:1;stroke-dasharray:none"
       d="m 189.09505,165.87935 c 0,0 2.88792,1.86523 0,6.566 -2.74965,4.4757 -1.55426,5.65884 0,7.70241 2.27284,2.98837 0,5.17703 0,5.17703"
       id="path3771"
       inkscape:connector-curvature="0"
       sodipodi:nodetypes="cssc" />
    <path
       style="fill:none;stroke:#000000;stroke-width:0.5;stroke-linecap:butt;stroke-linejoin:miter;stroke-miterlimit:4;stroke-opacity:1;stroke-dasharray:none"
       d="m 196.0044,162.81803 c 0,0 2.88792,1.86523 0,6.566 -2.74965,4.4757 -1.55426,5.65884 0,7.70241 2.27284,2.98837 0,5.17703 0,5.17703"
       id="path3771-0"
       inkscape:connector-curvature="0"
       sodipodi:nodetypes="cssc" />
    <path
       style="fill:none;stroke:#000000;stroke-width:0.5;stroke-linecap:butt;stroke-linejoin:miter;stroke-miterlimit:4;stroke-opacity:1;stroke-dasharray:none"
       d="m 202.91375,163.53232 c 0,0 2.88792,1.86523 0,6.566 -2.74965,4.4757 -1.55426,5.65884 0,7.70241 2.27284,2.98837 0,5.17703 0,5.17703"
       id="path3771-7"
       inkscape:connector-curvature="0"
       sodipodi:nodetypes="cssc" />
    <path
       style="fill:none;stroke:#000000;stroke-width:0.5;stroke-linecap:butt;stroke-linejoin:miter;stroke-miterlimit:4;stroke-opacity:1;stroke-dasharray:none"
       d="m 209.82309,165.87935 c 0,0 2.88792,1.86523 0,6.566 -2.74965,4.4757 -1.55426,5.65884 0,7.70241 2.27284,2.98837 0,5.17703 0,5.17703"
       id="path3771-5"
       inkscape:connector-curvature="0"
       sodipodi:nodetypes="cssc" />
  </g>
</svg>
