<?xml version="1.0" encoding="UTF-8" standalone="no"?>
<!-- Created with Inkscape (http://www.inkscape.org/) -->

<svg
   xmlns:osb="http://www.openswatchbook.org/uri/2009/osb"
   xmlns:dc="http://purl.org/dc/elements/1.1/"
   xmlns:cc="http://creativecommons.org/ns#"
   xmlns:rdf="http://www.w3.org/1999/02/22-rdf-syntax-ns#"
   xmlns:svg="http://www.w3.org/2000/svg"
   xmlns="http://www.w3.org/2000/svg"
   xmlns:xlink="http://www.w3.org/1999/xlink"
   xmlns:sodipodi="http://sodipodi.sourceforge.net/DTD/sodipodi-0.dtd"
   xmlns:inkscape="http://www.inkscape.org/namespaces/inkscape"
   width="744.09448819"
   height="1052.3622047"
   id="svg2"
   version="1.1"
   inkscape:version="0.48.0 r9654"
   sodipodi:docname="logo.svg">
  <defs
     id="defs4">
    <linearGradient
       inkscape:collect="always"
       id="linearGradient3785">
      <stop
         style="stop-color:#ffccaa;stop-opacity:1;"
         offset="0"
         id="stop3787" />
      <stop
         style="stop-color:#ffccaa;stop-opacity:0;"
         offset="1"
         id="stop3789" />
    </linearGradient>
    <inkscape:path-effect
       effect="skeletal"
       id="path-effect5625"
       is_visible="true"
       pattern="M 0,5 10,10 10,0 z"
       copytype="single_stretched"
       prop_scale="1"
       scale_y_rel="false"
       spacing="0"
       normal_offset="0"
       tang_offset="0"
       prop_units="false"
       vertical_pattern="false"
       fuse_tolerance="0" />
    <linearGradient
       id="linearGradient5611">
      <stop
         style="stop-color:#ff6400;stop-opacity:0;"
         offset="0"
         id="stop5613" />
      <stop
         style="stop-color:#ff7f2a;stop-opacity:0;"
         offset="1"
         id="stop5615" />
    </linearGradient>
    <inkscape:perspective
       sodipodi:type="inkscape:persp3d"
       inkscape:vp_x="3.1162991e-14 : 508.94707 : 0"
       inkscape:vp_y="-843.50709 : 1.0329641e-13 : 0"
       inkscape:vp_z="231.05855 : 857.02253 : 1"
       inkscape:persp3d-origin="821.06005 : 580.59709 : 1"
       id="perspective5575" />
    <linearGradient
       id="linearGradient5557"
       osb:paint="gradient">
      <stop
         style="stop-color:#ff7f2a;stop-opacity:1;"
         offset="0"
         id="stop5559" />
      <stop
         style="stop-color:#ff7f2a;stop-opacity:0;"
         offset="1"
         id="stop5561" />
    </linearGradient>
    <radialGradient
       inkscape:collect="always"
       xlink:href="#linearGradient3785"
       id="radialGradient3795"
       cx="231.21634"
       cy="184.10274"
       fx="231.21634"
       fy="184.10274"
       r="12.596603"
       gradientTransform="matrix(1.3172165,0.41405041,-0.50034762,1.5917534,18.87832,-204.89278)"
       gradientUnits="userSpaceOnUse" />
  </defs>
  <sodipodi:namedview
     id="base"
     pagecolor="#ffffff"
     bordercolor="#666666"
     borderopacity="1.0"
     inkscape:pageopacity="0.0"
     inkscape:pageshadow="2"
     inkscape:zoom="4"
     inkscape:cx="207.38157"
     inkscape:cy="860.71796"
     inkscape:document-units="px"
     inkscape:current-layer="layer1"
     showgrid="false"
     inkscape:snap-global="false"
     inkscape:snap-bbox="true"
     inkscape:object-nodes="true"
     inkscape:snap-to-guides="true"
     inkscape:snap-page="false"
     inkscape:object-paths="false"
     inkscape:snap-intersection-paths="false"
     inkscape:window-width="1278"
     inkscape:window-height="720"
     inkscape:window-x="0"
     inkscape:window-y="24"
     inkscape:window-maximized="0" />
  <metadata
     id="metadata7">
    <rdf:RDF>
      <cc:Work
         rdf:about="">
        <dc:format>image/svg+xml</dc:format>
        <dc:type
           rdf:resource="http://purl.org/dc/dcmitype/StillImage" />
        <dc:title />
      </cc:Work>
    </rdf:RDF>
  </metadata>
  <g
     inkscape:label="Layer 1"
     inkscape:groupmode="layer"
     id="layer1">
    <rect
       style="fill:#ff6400;fill-opacity:0.82377046;stroke:#000000;stroke-width:0.00100000000000000;stroke-linecap:round;stroke-miterlimit:4;stroke-opacity:1;stroke-dasharray:none"
       id="rect4103"
       width="97.227448"
       height="98.994972"
       x="178.22646"
       y="146.41193"
       ry="12.020815"
       inkscape:export-filename="/home/pablo/work/comanda/logo.png"
       inkscape:export-xdpi="90"
       inkscape:export-ydpi="90" />
    <path
       sodipodi:type="arc"
       style="fill:#ffccaa;fill-opacity:1;stroke:#000000;stroke-width:0.90000000000000002;stroke-miterlimit:4;stroke-opacity:1;stroke-dasharray:none"
       id="path3761"
       sodipodi:cx="198.70535"
       sodipodi:cy="196.24611"
       sodipodi:rx="5.4017859"
       sodipodi:ry="3.7946429"
       d="m 204.10714,196.24611 a 5.4017859,3.7946429 0 1 1 -10.80357,0 5.4017859,3.7946429 0 1 1 10.80357,0 z"
       transform="translate(2.1428571,-3.4723994)"
       inkscape:export-filename="/home/pablo/work/comanda/logo.png"
       inkscape:export-xdpi="90"
       inkscape:export-ydpi="90" />
    <path
       style="fill:#241f1c;stroke:#000000;stroke-width:1px;stroke-linecap:butt;stroke-linejoin:miter;stroke-opacity:1"
       d="m 201.78571,241.6479 c 9.06042,-11.83913 49.75568,0.96447 56.42858,0 6.6729,-0.96447 -0.40276,-46.99582 -28.49061,-49.34718 -22.29672,-1.86656 -36.99839,61.18631 -27.93797,49.34718 z"
       id="path2993"
       inkscape:connector-curvature="0"
       sodipodi:nodetypes="zzsz"
       inkscape:export-filename="/home/pablo/work/comanda/logo.png"
       inkscape:export-xdpi="90"
       inkscape:export-ydpi="90" />
    <path
       sodipodi:type="arc"
       style="fill:url(#radialGradient3795);stroke:#000000;stroke-opacity:1;fill-opacity:1"
       id="path3769"
       sodipodi:cx="231.32494"
       sodipodi:cy="184.38861"
       sodipodi:rx="12.096603"
       sodipodi:ry="13.889598"
       d="m 243.42154,184.38861 a 12.096603,13.889598 0 1 1 -24.19321,0 12.096603,13.889598 0 1 1 24.19321,0 z"
       transform="translate(1.1819168,-7.6267155)"
       inkscape:export-filename="/home/pablo/work/comanda/logo.png"
       inkscape:export-xdpi="90"
       inkscape:export-ydpi="90" />
    <path
       style="fill:none;stroke:#000000;stroke-width:0.5;stroke-linecap:butt;stroke-linejoin:miter;stroke-miterlimit:4;stroke-opacity:1;stroke-dasharray:none"
       d="m 191.23791,165.87935 c 0,0 2.88792,1.86523 0,6.566 -2.74965,4.4757 -1.55426,5.65884 0,7.70241 2.27284,2.98837 0,5.17703 0,5.17703"
       id="path3771"
       inkscape:connector-curvature="0"
       sodipodi:nodetypes="cssc"
       inkscape:export-filename="/home/pablo/work/comanda/logo.png"
       inkscape:export-xdpi="90"
       inkscape:export-ydpi="90" />
    <path
       style="fill:none;stroke:#000000;stroke-width:0.5;stroke-linecap:butt;stroke-linejoin:miter;stroke-miterlimit:4;stroke-opacity:1;stroke-dasharray:none"
       d="m 198.14726,162.81803 c 0,0 2.88792,1.86523 0,6.566 -2.74965,4.4757 -1.55426,5.65884 0,7.70241 2.27284,2.98837 0,5.17703 0,5.17703"
       id="path3771-0"
       inkscape:connector-curvature="0"
       sodipodi:nodetypes="cssc"
       inkscape:export-filename="/home/pablo/work/comanda/logo.png"
       inkscape:export-xdpi="90"
       inkscape:export-ydpi="90" />
    <path
       style="fill:none;stroke:#000000;stroke-width:0.5;stroke-linecap:butt;stroke-linejoin:miter;stroke-miterlimit:4;stroke-opacity:1;stroke-dasharray:none"
       d="m 205.05661,163.53232 c 0,0 2.88792,1.86523 0,6.566 -2.74965,4.4757 -1.55426,5.65884 0,7.70241 2.27284,2.98837 0,5.17703 0,5.17703"
       id="path3771-7"
       inkscape:connector-curvature="0"
       sodipodi:nodetypes="cssc"
       inkscape:export-filename="/home/pablo/work/comanda/logo.png"
       inkscape:export-xdpi="90"
       inkscape:export-ydpi="90" />
    <path
       style="fill:none;stroke:#000000;stroke-width:0.5;stroke-linecap:butt;stroke-linejoin:miter;stroke-miterlimit:4;stroke-opacity:1;stroke-dasharray:none"
       d="m 211.96595,165.87935 c 0,0 2.88792,1.86523 0,6.566 -2.74965,4.4757 -1.55426,5.65884 0,7.70241 2.27284,2.98837 0,5.17703 0,5.17703"
       id="path3771-5"
       inkscape:connector-curvature="0"
       sodipodi:nodetypes="cssc"
       inkscape:export-filename="/home/pablo/work/comanda/logo.png"
       inkscape:export-xdpi="90"
       inkscape:export-ydpi="90" />
    <path
       style="fill:#ffffff;stroke:#000000;stroke-width:1px;stroke-linecap:butt;stroke-linejoin:miter;stroke-opacity:1;fill-opacity:1"
       d="m 197.85528,196.86948 1.55671,4.20278 7.85714,-2.5 -1.42857,-3.17096 z"
       id="path2989"
       inkscape:connector-curvature="0"
       sodipodi:nodetypes="ccccc"
       inkscape:export-filename="/home/pablo/work/comanda/logo.png"
       inkscape:export-xdpi="90"
       inkscape:export-ydpi="90" />
    <path
       sodipodi:type="arc"
       style="fill:#ffffff;fill-opacity:1;stroke:#000000;stroke-width:1px;stroke-linecap:butt;stroke-linejoin:miter;stroke-opacity:1"
       id="path2995"
       sodipodi:cx="184.1003"
       sodipodi:cy="177.065"
       sodipodi:rx="18.182745"
       sodipodi:ry="2.5253813"
       d="m 202.28304,177.065 a 18.182745,2.5253813 0 1 1 -36.36549,0 18.182745,2.5253813 0 1 1 36.36549,0 z"
       transform="translate(17.547683,12.374369)"
       inkscape:export-filename="/home/pablo/work/comanda/logo.png"
       inkscape:export-xdpi="90"
       inkscape:export-ydpi="90" />
    <path
       sodipodi:type="arc"
       style="fill:#ffccaa;fill-opacity:1;stroke:#000000;stroke-width:0.89999998000000003;stroke-miterlimit:4;stroke-opacity:1;stroke-dasharray:none"
       id="path3761-5"
       sodipodi:cx="198.70535"
       sodipodi:cy="196.24611"
       sodipodi:rx="5.4017859"
       sodipodi:ry="3.7946429"
       d="m 204.10714,196.24611 a 5.4017859,3.7946429 0 1 1 -10.80357,0 5.4017859,3.7946429 0 1 1 10.80357,0 z"
       transform="matrix(0,1,-1,0,414.94413,20.786061)"
       inkscape:export-filename="/home/pablo/work/comanda/logo.png"
       inkscape:export-xdpi="90"
       inkscape:export-ydpi="90" />
    <path
       style="fill:#ffffff;fill-opacity:1;stroke:#000000;stroke-width:1px;stroke-linecap:butt;stroke-linejoin:miter;stroke-opacity:1"
       d="m 225.36861,214.15314 -4.20278,1.05165 0.73224,8.23593 3.67603,-0.41842 z"
       id="path2989-2"
       inkscape:connector-curvature="0"
       sodipodi:nodetypes="ccccc"
       inkscape:export-filename="/home/pablo/work/comanda/logo.png"
       inkscape:export-xdpi="90"
       inkscape:export-ydpi="90" />
    <path
       style="fill:#ffffff;fill-opacity:1;stroke:#000000;stroke-width:1px;stroke-linecap:butt;stroke-linejoin:miter;stroke-opacity:1"
       d="m 224.61747,212.91957 c -3.18285,-0.60033 17.2866,-2.08839 20.98214,0 2.43587,1.37654 0.4196,5.49142 0.0891,9.27843 -0.4359,4.99466 -0.0891,10.18585 -0.0891,10.18585 l -21.07143,0.17857 c 0,0 -0.28607,-5.21415 0.10356,-10.37628 0.29926,-3.96471 1.97733,-8.57717 -0.0143,-9.26657 z"
       id="path3801"
       inkscape:connector-curvature="0"
       sodipodi:nodetypes="cssccssc"
       inkscape:export-filename="/home/pablo/work/comanda/logo.png"
       inkscape:export-xdpi="90"
       inkscape:export-ydpi="90" />
    <path
       style="fill:none;stroke:#000000;stroke-width:0.001;stroke-linecap:round;stroke-linejoin:miter;stroke-opacity:1;stroke-miterlimit:4;stroke-dasharray:none"
       d="m 262.85489,180.75072 c 0,0 0.64601,-1.00315 1.76076,0.22322 1.73256,1.90603 3.80009,0.11491 3.80009,0.11491"
       id="path4037"
       inkscape:connector-curvature="0"
       sodipodi:nodetypes="csc"
       inkscape:export-filename="/home/pablo/work/comanda/logo.png"
       inkscape:export-xdpi="90"
       inkscape:export-ydpi="90" />
    <g
       id="g5667"
       transform="translate(-1.1035534,3.1945436)"
       inkscape:export-filename="/home/pablo/work/comanda/logo.png"
       inkscape:export-xdpi="90"
       inkscape:export-ydpi="90">
      <path
         sodipodi:nodetypes="cssscsssc"
         inkscape:connector-curvature="0"
         id="path4039"
         d="m 231.14228,176.47389 c -0.25172,0.1801 -0.55392,0.51236 -0.2924,0.85471 0.55502,0.72655 1.57759,-0.27419 2.49035,-0.22137 0.52166,0.0302 1.0576,1.23925 2.06774,1.16016 2.16473,-0.16949 2.21034,-2.80561 2.21034,-2.80561 0,0 -0.31381,2.29953 -2.00157,2.16596 -0.76753,-0.0607 -1.67528,-1.45962 -2.21219,-1.54473 -0.81108,-0.12854 -1.60225,-0.0814 -2.26227,0.39083 z"
         style="fill:#000000;fill-opacity:1;stroke:#000000;stroke-width:0.00142503;stroke-linecap:butt;stroke-linejoin:miter;stroke-miterlimit:4;stroke-opacity:1;stroke-dasharray:none" />
      <path
         sodipodi:nodetypes="cssscsssc"
         inkscape:connector-curvature="0"
         id="path4039-7"
         d="m 229.7576,176.23051 c 0.25172,0.1801 0.55392,0.51236 0.2924,0.85471 -0.55502,0.72655 -1.57759,-0.27419 -2.49035,-0.22137 -0.52166,0.0302 -1.0576,1.23925 -2.06774,1.16016 -2.16473,-0.16949 -2.21034,-2.80561 -2.21034,-2.80561 0,0 0.31381,2.29953 2.00157,2.16596 0.76753,-0.0607 1.67528,-1.45962 2.21219,-1.54473 0.81108,-0.12854 1.60225,-0.0814 2.26227,0.39083 z"
         style="fill:#000000;fill-opacity:1;stroke:#000000;stroke-width:0.00142503;stroke-linecap:butt;stroke-linejoin:miter;stroke-miterlimit:4;stroke-opacity:1;stroke-dasharray:none" />
    </g>
    <g
       id="g5671"
       transform="matrix(1.0219969,0,0,1,-5.9873754,2.6958446)"
       inkscape:export-filename="/home/pablo/work/comanda/logo.png"
       inkscape:export-xdpi="90"
       inkscape:export-ydpi="90">
      <path
         sodipodi:nodetypes="ccsscacssccsc"
         inkscape:connector-curvature="0"
         id="path4079"
         d="m 245.05357,173.41926 2.05358,-5.44643 c 0,0 0.45725,-2.43686 2.19387,-4.11814 1.87681,-1.817 5.01457,-2.98482 4.16668,-5.75815 -1.4218,-4.65052 -9.47275,-3.67912 -10.23839,-1.72539 -0.0202,-2.25467 -1.49669,-7.21553 -4.44292,-8.27129 -3.06042,-1.09668 -8.51824,1.75724 -9.02172,3.7052 -0.62975,-1.71384 -2.39554,-3.77786 -3.9165,-3.10033 -2.1872,0.97431 -0.59845,4.62172 -0.2524,7.9492 0.32975,3.17077 -0.63149,6.05104 -0.63149,6.05104 l -2.49999,6.07143 c 0,0 5.86299,-1.01515 11.43876,0.12887 5.6285,1.15483 10.97111,4.46914 11.15052,4.51399"
         style="fill:#ffffff;fill-opacity:1;stroke:#000000;stroke-width:1px;stroke-linecap:butt;stroke-linejoin:miter;stroke-opacity:1" />
      <path
         sodipodi:nodetypes="csc"
         inkscape:connector-curvature="0"
         id="path4081"
         d="m 224.96428,162.70497 c 0,0 7.6861,-0.7893 11.18873,0.16683 3.68119,1.00487 10.95414,5.10103 10.95414,5.10103"
         style="fill:none;stroke:#000000;stroke-width:1px;stroke-linecap:butt;stroke-linejoin:miter;stroke-opacity:1" />
      <path
         sodipodi:nodetypes="cccc"
         inkscape:connector-curvature="0"
         id="path4083"
         d="m 230.90456,157.59895 0.31251,0.0937 -0.51618,3.91851 z"
         style="fill:#000000;fill-opacity:1;stroke:#000000;stroke-width:0.001;stroke-linecap:butt;stroke-linejoin:miter;stroke-miterlimit:4;stroke-opacity:1;stroke-dasharray:none" />
      <path
         sodipodi:nodetypes="cccc"
         inkscape:connector-curvature="0"
         id="path4083-3"
         d="m 241.01394,160.49292 0.46876,-0.10157 -1.66071,2.99664 z"
         style="fill:#000000;fill-opacity:1;stroke:#000000;stroke-width:0.001;stroke-linecap:butt;stroke-linejoin:miter;stroke-miterlimit:4;stroke-opacity:1;stroke-dasharray:none" />
    </g>
    <g
       id="g5701"
       transform="translate(-111.72287,27.400388)">
      <path
         transform="translate(-1.0928301,3.6838203)"
         d="m 229.34375,169.78406 c 0,0.40558 -0.50368,0.73437 -1.125,0.73437 -0.62132,0 -1.125,-0.32879 -1.125,-0.73437 0,-0.40559 0.50368,-0.73438 1.125,-0.73438 0.62132,0 1.125,0.32879 1.125,0.73438 z"
         sodipodi:ry="0.734375"
         sodipodi:rx="1.125"
         sodipodi:cy="169.78406"
         sodipodi:cx="228.21875"
         id="path5647"
         style="fill:#000000;fill-opacity:1;stroke:#000000;stroke-width:0.5;stroke-linecap:round;stroke-miterlimit:4;stroke-opacity:1;stroke-dasharray:none"
         sodipodi:type="arc" />
      <path
         d="m 229.34375,169.78406 c 0,0.40558 -0.50368,0.73437 -1.125,0.73437 -0.62132,0 -1.125,-0.32879 -1.125,-0.73437 0,-0.40559 0.50368,-0.73438 1.125,-0.73438 0.62132,0 1.125,0.32879 1.125,0.73438 z"
         sodipodi:ry="0.734375"
         sodipodi:rx="1.125"
         sodipodi:cy="169.78406"
         sodipodi:cx="228.21875"
         id="path5647-5"
         style="fill:#000000;fill-opacity:1;stroke:#000000;stroke-width:0.5;stroke-linecap:round;stroke-miterlimit:4;stroke-opacity:1;stroke-dasharray:none"
         sodipodi:type="arc"
         transform="translate(4.8759194,4.0119472)" />
    </g>
    <path
       sodipodi:type="arc"
       style="fill:#ffffff;fill-opacity:1;stroke:#000000;stroke-width:0.30000001;stroke-miterlimit:4;stroke-opacity:1;stroke-dasharray:none"
       id="path5681"
       sodipodi:cx="263.13211"
       sodipodi:cy="195.79071"
       sodipodi:rx="1.5909905"
       sodipodi:ry="1.5909905"
       d="m 264.7231,195.79071 a 1.5909905,1.5909905 0 1 1 -10e-6,-0.007"
       sodipodi:start="0"
       sodipodi:end="6.2788763"
       sodipodi:open="true"
       transform="translate(-35.178562,3.3587572)"
       inkscape:export-filename="/home/pablo/work/comanda/logo.png"
       inkscape:export-xdpi="90"
       inkscape:export-ydpi="90" />
    <path
       sodipodi:type="arc"
       style="fill:#ffffff;fill-opacity:1;stroke:#000000;stroke-width:0.30000001;stroke-miterlimit:4;stroke-opacity:1;stroke-dasharray:none"
       id="path5681-2"
       sodipodi:cx="263.13211"
       sodipodi:cy="195.79071"
       sodipodi:rx="1.5909905"
       sodipodi:ry="1.5909905"
       d="m 264.7231,195.79071 a 1.5909905,1.5909905 0 1 1 -10e-6,-0.007"
       sodipodi:start="0"
       sodipodi:end="6.2788763"
       sodipodi:open="true"
       transform="translate(-37.303562,11.540738)"
       inkscape:export-filename="/home/pablo/work/comanda/logo.png"
       inkscape:export-xdpi="90"
       inkscape:export-ydpi="90" />
  </g>
</svg>
